<svg height="452pt" viewBox="-23 0 452 452.20116" width="452pt" xmlns="http://www.w3.org/2000/svg"><path fill= "#008B8B" d="m144.101562 376.640625c0-4.417969-3.582031-8-8-8h-16c-4.417968 0-8-3.582031-8-8s3.582032-8 8-8c13.253907 0 24-10.746094 24-24v-16c0-13.253906-10.746093-24-24-24-4.417968 0-8-3.582031-8-8s3.582032-8 8-8c13.253907 0 24-10.746094 24-24v-16c0-13.253906-10.746093-24-24-24h-.289062c-4.417969 0-8-3.582031-8-8s3.582031-8 8-8h16.289062c4.417969 0 8-3.582031 8-8v-45.335937l-46.402343-61.863282c-1.039063-1.386718-1.597657-3.070312-1.597657-4.800781v-24h-48v24c0 1.730469-.5625 3.414063-1.601562 4.800781l-46.398438 61.863282v45.335937c0 4.417969 3.582032 8 8 8h64c4.417969 0 8 3.582031 8 8s-3.582031 8-8 8h-48c-13.253906 0-24 10.746094-24 24v16c0 13.253906 10.746094 24 24 24h40c4.417969 0 8 3.582031 8 8s-3.582031 8-8 8h-40c-13.253906 0-24 10.746094-24 24v16c0 13.253906 10.746094 24 24 24h40.277344c4.421875 0 8 3.582031 8 8s-3.578125 8-8 8h-56.277344c-4.417968 0-8 3.582031-8 8v72h144zm-48-8h-8c-4.417968 0-8-3.582031-8-8s3.582032-8 8-8h8c4.417969 0 8 3.582031 8 8s-3.582031 8-8 8zm0-80h-8c-4.417968 0-8-3.582031-8-8s3.582032-8 8-8h8c4.417969 0 8 3.582031 8 8s-3.582031 8-8 8zm7.359376-84.960937c-.40625.96875-.976563 1.863281-1.679688 2.640624-1.507812 1.503907-3.554688 2.339844-5.679688 2.320313-1.042968.011719-2.074218-.175781-3.039062-.558594-.957031-.464843-1.847656-1.058593-2.640625-1.761719-.707031-.777343-1.273437-1.671874-1.679687-2.640624-.855469-1.933594-.855469-4.140626 0-6.078126.386718-.980468.957031-1.875 1.679687-2.640624.378906-.34375.78125-.664063 1.199219-.960938.445312-.300781.929687-.542969 1.441406-.71875.453125-.230469.9375-.394531 1.4375-.480469 1.558594-.332031 3.183594-.164062 4.640625.480469.96875.40625 1.863281.972656 2.640625 1.679688.722656.765624 1.292969 1.660156 1.679688 2.640624.851562 1.9375.851562 4.144532 0 6.078126zm0 0"/><path fill= "#008B8B" d="m104.101562.640625h-64c-4.417968 0-8 3.582031-8 8v24h80v-24c0-4.417969-3.582031-8-8-8zm0 0"/><path fill= "#008B8B" d="m254.125.273438-61.816406 16.566406c-4.265625 1.144531-6.796875 5.527344-5.65625 9.792968l6.207031 23.199219 77.273437-20.703125-6.207031-23.199218c-1.144531-4.269532-5.53125-6.800782-9.800781-5.65625zm0 0"/><path fill= "#008B8B" d="m267.546875 452.199219 139.097656-37.269531-16.566406-61.824219c-1.144531-4.269531-5.535156-6.800781-9.800781-5.65625l-15.441406 4.144531c-4.265626 1.144531-8.65625-1.386719-9.800782-5.65625-1.144531-4.269531 1.390625-8.65625 5.65625-9.800781 12.800782-3.429688 20.398438-16.589844 16.96875-29.390625l-4.136718-15.457032c-1.648438-6.15625-5.671876-11.402343-11.191407-14.585937-5.519531-3.179687-12.078125-4.039063-18.230469-2.382813-4.261718 1.121094-8.621093-1.414062-9.761718-5.667968-1.136719-4.253906 1.375-8.628906 5.625-9.789063 6.15625-1.640625 11.40625-5.667969 14.59375-11.1875s4.046875-12.082031 2.390625-18.234375l-4.144531-15.457031c-3.429688-12.804687-16.585938-20.402344-29.390626-16.976563l-.28125.082032c-4.257812 1.117187-8.621093-1.417969-9.761718-5.671875-1.136719-4.253907 1.375-8.625 5.625-9.785157l15.726562-4.214843c4.273438-1.140625 6.808594-5.53125 5.664063-9.800781l-11.734375-43.777344-60.800782-47.742188c-1.359374-1.070312-2.335937-2.550781-2.78125-4.222656l-6.21875-23.203125-46.398437 12.425781 6.214844 23.199219c.449219 1.671875.339843 3.441406-.304688 5.046875l-28.796875 71.769531 11.734375 43.792969c1.144531 4.265625 5.53125 6.800781 9.800781 5.65625l61.816407-16.5625c2.789062-.828125 5.808593-.078125 7.882812 1.960938 2.078125 2.039062 2.882813 5.042968 2.105469 7.847656-.777344 2.800781-3.015625 4.960937-5.84375 5.640625l-46.402344 12.425781c-12.808594 3.433594-20.40625 16.605469-16.960937 29.414062l4.136719 15.449219c3.429687 12.808594 16.59375 20.410157 29.402343 16.976563l38.628907-10.355469c2.789062-.828125 5.808593-.078125 7.886718 1.960937 2.074219 2.039063 2.882813 5.042969 2.105469 7.847657-.777344 2.804687-3.015625 4.964843-5.847656 5.640625l-38.640625 10.402344c-12.773438 3.4375-20.355469 16.566406-16.949219 29.351562l4.144531 15.453125c3.429688 12.804687 16.589844 20.398437 29.390625 16.96875l38.902344-10.398437c4.269531-1.144532 8.65625 1.386718 9.800781 5.65625 1.144532 4.265624-1.386718 8.65625-5.65625 9.800781l-54.398437 14.558593c-4.269531 1.144532-6.800781 5.53125-5.65625 9.800782zm62.226563-107.78125 7.726562-2.066407c2.789062-.828124 5.808594-.078124 7.886719 1.960938 2.074219 2.039062 2.882812 5.042969 2.105469 7.847656-.78125 2.800782-3.019532 4.964844-5.847657 5.640625l-7.726562 2.074219c-4.269531 1.140625-8.65625-1.390625-9.800781-5.65625-1.144532-4.269531 1.386718-8.65625 5.65625-9.800781zm-29.542969-141.160157c-1 .285157-2.050781.367188-3.082031.238282-1.042969-.191406-2.050782-.53125-3-1.007813-.886719-.570312-1.667969-1.285156-2.3125-2.117187-.679688-.800782-1.15625-1.75-1.398438-2.769532-.300781-1.007812-.359375-2.070312-.175781-3.105468.121093-1.042969.441406-2.054688.941406-2.984375.273437-.441407.570313-.867188.898437-1.269531.347657-.410157.753907-.765626 1.199219-1.066407.378907-.339843.804688-.621093 1.265625-.839843 1.417969-.722657 3.03125-.976563 4.605469-.734376 1.042969.140626 2.054687.460938 2.992187.945313.894532.550781 1.679688 1.265625 2.304688 2.109375 1.335938 1.644531 1.917969 3.777344 1.601562 5.871094-.148437 1.042968-.464843 2.050781-.945312 2.984375-1.0625 1.859375-2.828125 3.207031-4.894531 3.746093zm12.980469 79.34375c-4.265626 1.144532-8.652344-1.386718-9.796876-5.65625-1.144531-4.269531 1.386719-8.65625 5.65625-9.800781l7.726563-2.070312c4.269531-1.144531 8.65625 1.386719 9.800781 5.65625 1.144532 4.265625-1.390625 8.65625-5.65625 9.796875zm0 0"/></svg>