<?xml version="1.0" encoding="iso-8859-1"?>
<!-- Generator: Adobe Illustrator 19.0.0, SVG Export Plug-In . SVG Version: 6.00 Build 0)  -->
<svg version="1.1" id="Capa_1" xmlns="http://www.w3.org/2000/svg" xmlns:xlink="http://www.w3.org/1999/xlink" x="0px" y="0px"
	 viewBox="0 0 512 512" style="enable-background:new 0 0 512 512;" xml:space="preserve">
<g>
	<g>
		<g>
			<circle cx="341.333" cy="53.333" r="53.333"/>
			<path fill= "#008B8B" d="M426.333,166.927C424.375,144.74,406.188,128,384,128h-69.25c-19.833,0-39.208,8.094-53.125,22.219L220.375,192h-59.542
				c-17.646,0-32,14.354-32,32s14.354,32,32,32h62.792c16.958,0,33.563-5.844,46.792-16.469l9.646-7.771L288,501.646
				c0.167,5.771,4.896,10.354,10.667,10.354H384c5.625,0,10.292-4.375,10.646-10l10.042-160.667H416c17.646,0,32-14.354,32-32
				C448,308.25,448,307.406,426.333,166.927z"/>
			<path fill= "#008B8B" d="M247.175,296.982l-21.01-3.687c-5.802-1.018-11.33,2.859-12.35,8.66L184.75,469.333h-49.5l-29.066-167.378
				c-1.019-5.802-6.548-9.679-12.35-8.66l-21.01,3.687c-5.803,1.018-9.681,6.548-8.662,12.351l32.149,185.015
				C98.104,504.555,106.97,512,117.333,512h85.333c10.364,0,19.229-7.445,21.022-17.652l32.149-185.015
				C256.856,303.531,252.978,298.001,247.175,296.982z"/>
			<path fill= "#008B8B" d="M133.875,366.042c1.5,4.469,5.667,7.292,10.125,7.292c1.125,0,2.25-0.177,3.375-0.552l48-16
				c5.583-1.854,8.604-7.896,6.75-13.49l-16-48c-1.875-5.594-7.917-8.573-13.5-6.74l-48,16c-5.583,1.854-8.604,7.896-6.75,13.49
				L133.875,366.042z"/>
		</g>
	</g>
</g>
<g>
</g>
<g>
</g>
<g>
</g>
<g>
</g>
<g>
</g>
<g>
</g>
<g>
</g>
<g>
</g>
<g>
</g>
<g>
</g>
<g>
</g>
<g>
</g>
<g>
</g>
<g>
</g>
<g>
</g>
</svg>
