<?xml version="1.0"?>
<svg xmlns="http://www.w3.org/2000/svg" id="Layer_1" data-name="Layer 1" viewBox="0 0 512 512" width="512" height="512"><title>Wc</title><rect x="177" y="467" width="158" height="16"/><path fill= "#008B8B" d="M381,259H131a8,8,0,0,0,0,16H381a8,8,0,0,0,0-16Z"/><path fill= "#008B8B" d="M286.819,400.578a127.1,127.1,0,0,1-61.638-.024l1.481,7.377c3.485,17.424,3.362,29.069-1.125,45.069h60.926c-4.487-16-4.61-27.649-1.125-45.073Z"/><path fill= "#008B8B" d="M256,390.5A113.1,113.1,0,0,0,368.419,289H143.581A113.1,113.1,0,0,0,256,390.5Z"/><path fill= "#008B8B" d="M349,245V178.981c0-51.1-41.9-92.68-93-92.68s-93,41.576-93,92.68V245h10V178.981c0-45.59,37.41-82.68,83-82.68s83,37.09,83,82.68V245Z"/><path fill= "#008B8B" d="M421,29H91a8,8,0,0,0,0,16H421a8,8,0,0,0,0-16Z"/><path fill= "#008B8B" d="M108,181.875A23.133,23.133,0,0,0,131,205h18V178.981C149,120.158,197.176,72.3,256,72.3s107,47.857,107,106.68V205h18a23.133,23.133,0,0,0,23-23.125V59H108Z"/><path fill= "#008B8B" d="M256,110.3c-37.871,0-69,30.81-69,68.68V245H325V178.981C325,141.111,293.871,110.3,256,110.3Z"/></svg>
