<?xml version="1.0" encoding="iso-8859-1"?>
<!-- Generator: Adobe Illustrator 19.0.0, SVG Export Plug-In . SVG Version: 6.00 Build 0)  -->
<svg xmlns="http://www.w3.org/2000/svg" xmlns:xlink="http://www.w3.org/1999/xlink" version="1.1" id="Layer_1" x="0px" y="0px" viewBox="0 0 512 512" style="enable-background:new 0 0 512 512;" xml:space="preserve" width="512" height="512">
<g>
	<path fill= "#008B8B" d="M154.701,89.099l20.999-21l62.1,62.1c3.9,3.9,7.5,7.8,10.501,11.7c20.099-29.399,16.8-69.3-9.001-95.099   C209.299,16.5,169.1,0,126.501,0H86.6v39.899c0,42.601,16.5,82.8,46.8,113.101c25.499,25.501,64.799,28.801,93.9,9.901   c-3.3-3.9-6.899-7.8-10.8-11.7L154.701,89.099z"/>
	<path fill= "#008B8B" d="M398.301,68.099l20.999,21l-61.8,62.1c-3.9,3.9-7.5,7.8-10.8,11.7c29.101,18.9,68.401,15.601,93.9-9.901   c30.3-30.3,46.8-70.499,46.8-113.101V0h-39.901C404.9,0,364.701,16.5,334.701,46.8c-25.801,25.8-29.101,65.7-9.001,95.099   c3.001-3.9,6.601-7.8,10.501-11.7L398.301,68.099z"/>
	<path fill= "#008B8B" d="M334.701,152.999c-3.602-3.6-6.601-7.2-9.001-11.1c-16.8,18.9-29.7,40.499-38.699,63.6c-9-23.101-21.899-44.7-38.699-63.6   c-2.401,3.9-5.4,7.5-9.001,11.1c-3.898,3.9-7.798,6.899-11.999,9.901c25.849,30.698,40.602,70.536,43.497,110.479   c-24.036,2.999-46.093,12.145-64.565,26.041c8.046,5.001,16.474,10.602,25.558,16.76L287,317c40.898,0,78.384,24.199,95.479,61.641   l0.073,0.146c10.371-5.901,20.35-12.896,30.031-20.497c-17.692-45.56-59.235-78.964-109.371-85.027   c2.917-39.901,17.662-79.695,43.488-110.364C342.499,159.899,338.301,156.899,334.701,152.999z"/>
	<path fill= "#008B8B" d="M176.917,499.725c27.114,6.313,52.72,12.275,91.245,12.275C369.626,512,411.138,465.856,512,399.998   c-1.049-1.575,1.339,2.009-8.562-12.832c-15.428-22.745-48.082-24.51-69.479-7.264c-43.852,35.345-99.179,58.125-155.993,57.338   c-46.527-0.645-81.194-14.824-85.712-16.016l9.492-28.447c5.255,1.397,33.195,13.264,74.326,14.414   c27.266,1.119,53.948-5.349,79.12-16.082C343.237,364.932,316.919,347,287,347h-52.852c-6.769,0-13.581-2.194-19.186-5.991   c-65.349-44.277-81.517-49.111-142.474-9.009H0v150h15C98.745,482,141.204,491.419,176.917,499.725z"/>
</g>















</svg>
