<svg height="512" viewBox="0 0 58 57" width="512" xmlns="http://www.w3.org/2000/svg"><g id="Page-1" fill="none" fill-rule="evenodd"><g id="024---Pestisides" fill="rgb(0,0,0)" fill-rule="nonzero" transform="translate(0 -1)"><path fill= "#008B8B" id="Shape" d="m56 51h-4.7c-1.1459299.031806-2.1093794.8695882-2.3 2 .0855978-.5065412-.0603861-1.0247778-.3977963-1.4121604-.3374103-.3873826-.830708-.6031088-1.3442037-.5878396h-5.958c-1.1472987.0282873-2.112674.8677441-2.3 2 .0870098-.5062676-.0580469-1.0248403-.3951051-1.4124863s-.8304486-.6033427-1.3438949-.5875137h-6.261c-1.1045695 0-2 .8954305-2 2 0-1.1045695-.8954305-2-2-2h-6c-1.1045695 0-2 .8954305-2 2 0-1.1045695-.8954305-2-2-2h-6c-1.1045695 0-2 .8954305-2 2 0-1.1045695-.8954305-2-2-2h-5c-1.1045695 0-2 .8954305-2 2v4c0 .5522847.44771525 1 1 1h56c.5522847 0 1-.4477153 1-1v-4c0-1.1045695-.8954305-2-2-2z"/><path fill= "#008B8B" id="Shape" d="m39.735 24.15c-.1312028.1286229-.2737852.2450986-.426.348l1.323 4.939c1.9954629-.8114533 3.5785467-2.3945371 4.39-4.39l-4.937-1.322c-.1036722.151886-.2208119.2941271-.35.425z"/><path fill= "#008B8B" id="Shape" d="m37.614 21.029c-.2651948.0000566-.5195073.1054506-.707.293-.3372957.3373976-.3892811.8660753-.1241634 1.2627088.2651176.3966335.7734975.550752 1.2142288.3681009.4407313-.182651.6910612-.6511994.5978948-1.1190942-.0931663-.4678948-.50388-.8048174-.9809602-.8047155z"/><path fill= "#008B8B" id="Shape" d="m28.421 14.25c.3904653.3907414 1.0237585.3909653 1.4145.0005.3907414-.3904653.3909653-1.0237585.0005-1.4145l-2.113-2.112-.01-.007-.007-.01-7.77-7.77c-.3904999-.39038194-1.0235001-.39038194-1.414 0-.3903819.39049985-.3903819 1.02350015 0 1.414z"/><path fill= "#008B8B" id="Shape" d="m38.9 19.331 3.621-3.621c-1.7011513-1.3163771-3.8595968-1.8946286-5.991-1.605l1.325 4.948c.3623493.0282963.7164885.1225075 1.045.278z"/><path fill= "#008B8B" id="Shape" d="m42.591 4.377c.2022933.19882331.4799552.30164788.7629537.28253927s.5443172-.15832619.7180463-.38253927c.1679998-.20484084.346576-.40077399.535-.587.8-.844 1.949-.918 3.38-.2 3.611 1.8 7.6 8.176 6.943 12.787-.018.126-.051.245-.075.369l1.645 1.643c.1798168-.5652631.3135868-1.1441531.4-1.731.808-5.6-3.721-12.706-8.01-14.865-2.2-1.1-4.226-.894-5.7.584-.2470872.24449394-.476969.50578403-.688.782-.3056485.39611363-.2692394.95767086.085 1.311z"/><path fill= "#008B8B" id="Shape" d="m38.313 41.123 18.4-18.391c.3865714-.3866109.3865714-1.0133891 0-1.4l-3.943-3.943-14.447-14.452c-.3973651-.3753807-1.0186349-.3753807-1.416 0l-7.071 7.071 1.414 1.414c.7579389.7579389 1.0539478 1.862659.7765229 2.8980229s-1.0861361 1.8440751-2.1215 2.1215-2.140084-.018584-2.8980229-.7765229l-1.413-1.414-7.067 7.076c-.38631.3859159-.3885437 1.0113347-.005 1.4l9.686 9.7c.5622132.5600337.7401435 1.3994896.4534761 2.1394512-.2866675.7399616-.9837029 1.2404484-1.7764761 1.2755488l-9.885.975v2.447l18.772 2.706c.9336716.139782 1.8779319-.1749715 2.541-.847zm-7.063-11.73c-.2651948-.0000566-.5195073-.1054506-.707-.293-2.5213394-2.528562-3.5061651-6.2080387-2.585-9.658.1434291-.5331454.6917873-.8491788 1.225-.706l5.96 1.6c.1034156-.1520784.2205739-.294342.35-.425.1306103-.1285838.2728889-.24475.425-.347l-1.6-5.963c-.1425403-.5328889.1733534-1.0805572.706-1.224 3.4496517-.9205689 7.1285388.064201 9.657 2.585.3903819.3904999.3903819 1.0235001 0 1.414l-4.371 4.371c.1556357.3290457.2492029.6839911.276 1.047l5.973 1.6c.5314673.1426077.8478592.6878028.708 1.22-.9180875 3.4534556-3.6141946 6.1514702-7.067 7.072-.0832677.0217125-.1689483.0328005-.255.033-.4522099-.0003968-.8478778-.3042205-.965-.741l-1.605-5.978c-.3623122-.0278259-.7164763-.1217048-1.045-.277l-4.373 4.377c-.1874927.1875494-.4418052.2929434-.707.293z"/><path fill= "#008B8B" id="Shape" d="m14 42h1v-8h-1c-.5522847 0-1 .4477153-1 1v6c0 .5522847.4477153 1 1 1z"/><path id="Shape" d="m29.691 20.943c-.2912655 2.1307353.2851885 4.2891953 1.6 5.991l3.619-3.619c-.1558518-.329026-.2497523-.6839498-.277-1.047z"/><path fill= "#008B8B" id="Shape" d="m6 47c1.65685425 0 3-1.3431458 3-3 0-1.657-3-5-3-5s-3 3.343-3 5c0 1.6568542 1.34314575 3 3 3z"/></g></g></svg>